<svg width="419" height="171" viewBox="0 0 419 171" fill="none" xmlns="http://www.w3.org/2000/svg">
<g clip-path="url(#clip0_3054_276)">
<g clip-path="url(#clip1_3054_276)">
<path fill-rule="evenodd" clip-rule="evenodd" d="M106.555 78.1295L106.883 83.9445L100.746 81.407L106.555 78.1295ZM121.554 47.3563C121.554 47.3563 130.398 59.5029 107.497 52.227C107.497 52.227 112.496 46.8384 121.554 47.3563ZM109.561 67.1266C116.873 75.6777 115.682 89.9267 115.682 89.9267C113.756 86.9053 108.596 84.6261 108.596 84.6261C110.863 74.4802 109.561 67.1266 109.561 67.1266ZM126.451 78.2118L118.12 89.4986L117.638 77.8401L126.451 78.2118ZM125.749 82.866L127.775 98.7205L118.759 91.5235L125.749 82.866ZM137.957 82.0316C137.05 95.0264 128.093 103.92 128.093 103.92C131.609 91.434 129 78.6113 129 78.6113L137.957 82.0316ZM70.4455 78.1277L70.1186 83.9427L76.2558 81.4053L70.4455 78.1277ZM55.4459 47.3546C55.4459 47.3546 46.6022 59.5015 69.503 52.2253C69.503 52.2253 64.5035 46.8366 55.4459 47.3546ZM67.4412 67.1252C60.1287 75.6756 61.3195 89.9253 61.3195 89.9253C63.2461 86.9041 68.4044 84.624 68.4044 84.624C66.1374 74.4784 67.4412 67.1252 67.4412 67.1252ZM50.5491 78.2101L58.8814 89.4969L59.3637 77.8387L50.5491 78.2101ZM51.2508 82.8642L49.2232 98.7188L58.2397 91.5218L51.2508 82.8642ZM39.0432 82.0297C39.95 95.0248 48.9067 103.918 48.9067 103.918C45.3924 91.4322 47.9999 78.6092 47.9999 78.6092L39.0432 82.0297ZM88.5011 38.2271C88.5011 38.2271 114.402 9.04229 132.994 29.7915C145.338 5.11092 156.453 53.3642 160.43 55.6699C142.371 51.2857 138.33 15.4426 104.767 38.9121C137.919 22.7152 138.645 52.5694 146.258 60.002C146.258 60.002 137.046 55.4133 127.072 57.4091C127.072 57.4091 129.51 50.6835 125.145 45.4965C125.145 45.4965 131.211 45.4396 134.044 49.4863C128.343 17.4487 100.412 64.2002 94.5918 44.299C94.5918 44.299 92.8346 49.2008 94.2514 52.6209C94.2514 52.6209 89.8354 48.8584 88.5011 39.5675C87.1664 48.8584 82.7486 52.6209 82.7486 52.6209C84.1672 49.2008 82.4082 44.299 82.4082 44.299C76.5875 64.2002 48.6589 17.4487 42.9579 49.4863C45.7929 45.4396 51.858 45.4965 51.858 45.4965C47.4933 50.6835 49.9313 57.4091 49.9313 57.4091C39.9554 55.4151 30.7451 60.002 30.7451 60.002C38.3608 52.5694 39.0825 22.7152 72.2369 38.9121C38.6719 15.4426 34.631 51.2857 16.5737 55.6699C20.5499 53.3628 31.6623 5.11092 44.0099 29.7915C62.6024 9.04229 88.5011 38.2271 88.5011 38.2271ZM106.693 21.4678C106.693 21.4678 96.1555 20.1 88.5011 27.9659C80.8462 20.1 70.3084 21.4678 70.3084 21.4678C76.7982 14.8248 100.204 14.8248 106.693 21.4678ZM167.975 87.8072C176.511 76.0405 169.126 69.5442 164.89 67.0287C170.805 66.9151 175.403 63.7683 177 58.0613C157.727 56.4079 164.177 -1.5976 131.536 18.7767C129.27 9.74931 114.772 14.405 112.537 15.181C99.8234 5.60633 77.1692 5.60633 64.4571 15.181C62.2246 14.405 47.7262 9.74931 45.4592 18.7767C12.822 -1.5939 19.272 56.4114 0 58.0648C1.59648 63.7717 6.19525 66.9184 12.1082 67.032C7.87538 69.5475 0.489293 76.044 9.02327 87.8109C-40.8174 188.063 217.817 188.063 167.975 87.8109V87.8072ZM161.307 93.8325C161.307 93.8325 167.318 119.597 143.738 136.012C143.738 136.012 148.613 121.307 141.129 110.134C141.129 110.134 145.55 130.653 119.022 150.263C119.022 150.263 127.866 141.826 126.957 128.147C120.295 162.207 56.7019 162.207 50.0393 128.147C49.1326 141.826 57.9745 150.263 57.9745 150.263C31.445 130.653 35.8677 110.134 35.8677 110.134C28.3857 121.307 33.2604 136.012 33.2604 136.012C9.68037 119.595 15.6909 93.8325 15.6909 93.8325C19.6587 101.243 26.2335 103.066 26.2335 103.066C-2.49116 67.1731 28.634 64.9588 65.0049 62.3093C59.2237 59.4015 54.4058 60.0881 54.4058 60.0881C61.8021 56.5077 74.4045 51.4133 81.1028 58.1492C81.1028 58.1492 73.7321 58.3761 72.1463 65.444C72.3651 65.6453 92.9476 79.695 84.0506 79.695L80.5928 77.8714L78.0419 79.8654C78.0419 79.8654 74.4129 77.0143 69.7664 75.0772C69.7664 75.0772 68.5192 66.6982 70.2199 61.6814C70.2199 61.6814 64.7771 63.8475 61.7162 72.968C61.7162 72.968 49.0199 67.9509 31.2207 75.0186C31.2207 75.0186 24.9863 96.5645 52.4211 116.402C52.8606 76.9677 124.138 76.9677 124.579 116.402C152.014 96.5663 145.778 75.0186 145.778 75.0186C127.979 67.9509 115.282 72.968 115.282 72.968C112.221 63.8475 106.778 61.6814 106.778 61.6814C108.479 66.6982 107.232 75.0772 107.232 75.0772C102.583 77.0143 98.9563 79.8654 98.9563 79.8654L96.4054 77.8714L92.9476 79.695C84.0506 79.695 104.633 65.6453 104.851 65.444C103.263 58.3761 95.8939 58.1492 95.8939 58.1492C102.593 51.4133 115.196 56.5077 122.593 60.0881C122.593 60.0881 117.775 59.4031 111.994 62.3093C148.364 64.9588 179.49 67.1731 150.767 103.066C150.767 103.066 157.34 101.243 161.307 93.8325Z" fill="white"/>
</g>
<path d="M194.95 116.773V116.823H195H221.718C226.124 116.823 229.872 116.069 232.963 114.558L232.963 114.558C236.052 113.027 238.414 110.944 240.048 108.309L240.048 108.309C241.681 105.654 242.498 102.641 242.498 99.2735C242.498 96.2533 241.876 93.6384 240.63 91.4307C239.386 89.2045 237.733 87.4675 235.67 86.2208C233.642 84.9827 231.43 84.299 229.037 84.1699V83.6466C231.217 83.1551 233.139 82.3003 234.802 81.0815C236.475 79.8553 237.788 78.3121 238.742 76.4525L238.742 76.4523C239.695 74.5713 240.172 72.4358 240.172 70.0469C240.172 66.9031 239.404 64.1348 237.867 61.7438C236.349 59.352 234.073 57.4933 231.042 56.1666C228.029 54.8396 224.291 54.1773 219.829 54.1773H195H194.95V54.2273V116.773ZM225.146 102.686L225.146 102.686C223.686 103.917 221.403 104.537 218.288 104.537H209.441V89.734H218.549C220.385 89.734 221.957 90.0587 223.266 90.7061L223.267 90.7063C224.576 91.3336 225.586 92.2332 226.298 93.4052L226.298 93.4056C227.01 94.5569 227.367 95.9319 227.367 97.5327C227.367 99.7394 226.625 101.455 225.146 102.686ZM224.352 76.7072L224.351 76.7078C223.678 77.7375 222.736 78.5255 221.523 79.0716C220.31 79.618 218.921 79.8918 217.357 79.8918H209.441V66.2794H217.59C219.985 66.2794 221.882 66.8779 223.285 68.0694C224.687 69.2598 225.39 70.8942 225.39 72.9787C225.39 74.4364 225.043 75.6785 224.352 76.7072ZM262.246 116.823H262.284L262.294 116.787L266.201 103.691H286.689L290.603 116.787L290.614 116.823H290.651H306.118H306.187L306.166 116.757L286.076 54.212L286.065 54.1773H286.028H266.869H266.833L266.822 54.212L246.732 116.757L246.711 116.823H246.779H262.246ZM276.63 70.0358L283.227 92.1077H269.656L276.239 70.0358H276.63ZM312.479 116.773V116.823H312.529H326.92H326.97V116.773V95.4144H334.26L345.133 116.795L345.147 116.823H345.178H360.878H360.96L360.922 116.75L348.603 93.0008C351.869 91.4108 354.395 89.1226 356.181 86.1365L356.182 86.1364C357.99 83.0934 358.892 79.399 358.892 75.0554C358.892 70.7729 358.009 67.0688 356.24 63.9448C354.472 60.8009 351.954 58.3916 348.69 56.7178C345.445 55.0234 341.589 54.1773 337.125 54.1773H312.529H312.479V54.2273V116.773ZM334.014 83.4039H326.97V66.4627H334.014C336.161 66.4627 337.965 66.7877 339.43 67.4357L339.431 67.4359C340.895 68.0632 342.001 69.0133 342.751 70.2861L342.751 70.2864C343.501 71.5388 343.878 73.1275 343.878 75.0554C343.878 76.9834 343.501 78.5617 342.751 79.7936C342.001 81.0052 340.896 81.9148 339.431 82.522C337.986 83.1092 336.18 83.4039 334.014 83.4039ZM366.686 116.773V116.823H366.736H381.127H381.177V116.773V99.8399L386.879 92.2774L401.668 116.799L401.683 116.823H401.711H418.922H419.012L418.965 116.746L397.498 82.1434L418.584 54.2575L418.645 54.1773H418.544H401.595H401.57L401.555 54.1974L381.887 80.6247H381.177V54.2273V54.1773H381.127H366.736H366.686V54.2273V116.773Z" fill="white" stroke="white" stroke-width="0.1"/>
</g>
<defs>
<clipPath id="clip0_3054_276">
<rect width="418.922" height="171" fill="white"/>
</clipPath>
<clipPath id="clip1_3054_276">
<rect width="177" height="155" fill="white" transform="translate(0 8)"/>
</clipPath>
</defs>
</svg>
